<svg width="200" height="60" viewBox="0 0 200 60" fill="none" xmlns="http://www.w3.org/2000/svg">
<g clip-path="url(#clip0_359_1231)">
<path d="M154.721 32.6977C154.721 24.9498 148.597 18.6104 141.11 18.6104H119.104C111.618 18.6104 105.492 24.9498 105.492 32.6977C105.492 40.4458 111.618 46.7852 119.104 46.7852H141.11C148.597 46.7852 154.721 40.4458 154.721 32.6977ZM144.716 32.6977C144.716 35.4971 142.503 37.7879 139.798 37.7879H120.417C117.712 37.7879 115.499 35.4971 115.499 32.6977C115.499 29.8982 117.712 27.6077 120.417 27.6077H139.798C142.503 27.6077 144.716 29.8983 144.716 32.6977Z" fill="white"/>
<path d="M100.636 14.9986C98.3472 15.0027 96.2012 16.1164 94.8709 17.9893L79.8627 38.8862L71.7198 27.7317H59.865C63.9573 33.4474 70.6868 42.5774 71.0815 43.0654L73.8483 46.9016H74.106H85.7144H85.9717L88.7385 43.0464C89.6682 41.891 109.223 14.9824 109.223 14.9824L100.637 14.9987L100.636 14.9986Z" fill="white"/>
<path d="M179.132 28.2138L200 0L190.334 0.0156349C188.046 0.0209837 185.899 1.14299 184.57 3.0307L169.177 23.6766L165.745 18.6509H153.891C157.982 24.4394 160.385 27.7876 160.779 28.2819L163.178 31.7999L142.385 60L152.106 59.9756C154.395 59.9708 156.541 58.8488 157.87 56.9612L172.975 36.6467L180.456 46.6734L192.752 46.7456C188.66 40.9563 182.055 32.2043 181.661 31.7102L179.132 28.2144L179.132 28.214L179.132 28.2138Z" fill="white"/>
<path d="M15.3604 43.6682L23.9714 55.39L32.5831 43.6553L23.9987 31.792L15.3604 43.6682Z" fill="#99CB51"/>
<path d="M32.3301 12.2376L28.2124 6.68164L11.5823 6.68315L24.0425 23.5912L32.3301 12.2376Z" fill="white"/>
<path d="M38.7393 43.5056L43.0122 49.2398L59.618 49.2588L47.0979 32.209L38.7393 43.5056Z" fill="white"/>
<path d="M17.3884 22.9645L0 22.96L12.2852 39.5582L20.8701 27.7462L17.3884 22.9645Z" fill="#99CB51"/>
<path d="M50.8159 0.859512C48.6465 0.859512 46.565 1.7326 45.0312 3.28635L27.0623 27.6337L35.7218 39.405L64.1421 0.95195L50.816 0.859375H50.8159V0.859512Z" fill="#99CB51"/>
</g>
<defs>
<clipPath id="clip0_359_1231">
<rect width="200" height="60" fill="white"/>
</clipPath>
</defs>
</svg>
